<svg xmlns="http://www.w3.org/2000/svg" width="32" height="28.811" viewBox="0 0 32 28.811"><g transform="translate(-19 -44.091)"><g transform="translate(20 45.092)"><g transform="translate(0 0)"><line x2="30" transform="translate(0 13.059)" fill="none" stroke="#fff" stroke-linecap="round" stroke-linejoin="round" stroke-miterlimit="10" stroke-width="2"/><path d="M87.5,46.506h0a2.357,2.357,0,0,1-4.321,0h0a2.36,2.36,0,0,0-4.4.182L73.758,58.151H96.924L91.9,46.689A2.36,2.36,0,0,0,87.5,46.506Z" transform="translate(-70.341 -45.092)" fill="none" stroke="#fff" stroke-linecap="round" stroke-linejoin="round" stroke-miterlimit="10" stroke-width="2"/></g><g transform="translate(2.924 16.776)"><ellipse cx="4.87" cy="5.017" rx="4.87" ry="5.017" fill="none" stroke="#fff" stroke-linecap="round" stroke-linejoin="round" stroke-miterlimit="10" stroke-width="2"/><line x2="3.635" transform="translate(10.258 5.017)" fill="none" stroke="#fff" stroke-linecap="round" stroke-linejoin="round" stroke-miterlimit="10" stroke-width="2"/></g></g><path d="M302.484,314.352q.009-.149.009-.3a4.872,4.872,0,1,0-4.87,5.017,4.787,4.787,0,0,0,.557-.032" transform="translate(-255.417 -247.167)" fill="none" stroke="#fff" stroke-linecap="round" stroke-linejoin="round" stroke-miterlimit="10" stroke-width="2"/></g></svg>