<svg xmlns="http://www.w3.org/2000/svg" width="489.996" height="512" viewBox="0 0 489.996 512"><g transform="translate(-11.002)"><path d="M22.849,342.422l231.513-20.137,215.891,63.6A243.868,243.868,0,0,0,501,267c0-135.309-109.69-245-245-245S11,131.693,11,267a244.8,244.8,0,0,0,11.847,75.42Z" fill="#501eff"/><path d="M420.339,288.246c-9.313-48.658-17.891-118.7-24.224-177.555A123.974,123.974,0,0,0,311.851,6.266H272.893L198.887,87.315,179.64,499.853a243.955,243.955,0,0,0,52.781,11.017l30.967-18.054L290.6,509.572A245.165,245.165,0,0,0,470.254,385.885c-19.012-18.786-40.4-47.92-49.915-97.639Z" fill="#f9f2f2"/><path d="M342.747,233.981c-30.27,0-63.361.092-66.04,27.878s24.878,56.815,55.134,55.779c23.162-.793,45.013-20.871,47.692-48.657s-13.426-35-36.786-35Z" fill="#501eff"/><ellipse cx="22.335" cy="30.412" rx="22.335" ry="30.412" transform="translate(357.489 135.656)" fill="#501eff"/><ellipse cx="27.128" cy="32.822" rx="27.128" ry="32.822" transform="translate(240.046 135.656)" fill="#501eff"/><path d="M272.893,0a123.84,123.84,0,0,0-121.16,97.879C136.02,171.467,100.96,271.4,22.849,342.422a244.1,244.1,0,0,0,33.357,66.342l45.408,5.884,7.924,48.75a244.258,244.258,0,0,0,70.1,36.454c30.586-98.282,31.915-218.294,31.915-336.439,0-107.4,62.893-144.551,100.3-157.148A123.767,123.767,0,0,0,272.893,0Z" fill="#ede3dd"/><path d="M109.538,463.4c16.559-36.85,28.584-79.728,36.975-117.212,4.691-20.955-22.926-33.063-35.079-15.358-19.967,29.088-40.089,57.2-55.251,77.932A246.445,246.445,0,0,0,109.538,463.4Z" fill="#d1c5c2"/><path d="M256,512a246.932,246.932,0,0,0,34.6-2.43c-.635-17.307-1.885-34.3-3.449-50.2-2.1-21.371-32.121-24.228-38.123-3.61-5.563,19.109-11.269,37.935-16.608,55.105Q244.063,511.981,256,512Z" fill="#ede3dd"/></g></svg>