<svg xmlns="http://www.w3.org/2000/svg" width="23.35" height="17.413" viewBox="0 0 23.35 17.413" fill="#FF9900"><path d="M28.04,8.256a1.8,1.8,0,0,0-2.1,1.432s-.273,1.311-.292,1.4c-.792,3.216-6.026,2.729-6.025-.684V9.752a1.8,1.8,0,0,0-3.592,0s-.017.565-.017.649c0,3.392-5.18,3.9-6.015.728L9.716,9.6a1.8,1.8,0,0,0-3.531.66l2.1,11.226,0,.01a4.8,4.8,0,0,0,4.7,3.88h9.68a4.8,4.8,0,0,0,4.7-3.887l2.1-11.136A1.8,1.8,0,0,0,28.04,8.256ZM22.669,21.785h-9.68a1.2,1.2,0,0,1-1.175-.964l-.793-4.239a6.952,6.952,0,0,0,6.8-1.74,6.954,6.954,0,0,0,6.824,1.733l-.8,4.243A1.2,1.2,0,0,1,22.669,21.785Z" transform="translate(-6.154 -7.965)"/></svg>