<svg height="512" viewBox="0 0 28 28" width="512" xmlns="http://www.w3.org/2000/svg" fill="#FFF"><g id="Layer_2" data-name="Layer 2"><path d="m3.963 10h-.926a2.223 2.223 0 0 0 -2.037 2.367v11.157a2.224 2.224 0 0 0 2.037 2.368h.926a2.224 2.224 0 0 0 2.037-2.368v-11.157a2.223 2.223 0 0 0 -2.037-2.367z"/><path d="m23.013 9.482h-5.363l.75-1.909a6.028 6.028 0 0 0 -.413-5.234 2.708 2.708 0 0 0 -4.946.661 11.634 11.634 0 0 1 -3.873 5.91l-1.683 1.367a4.584 4.584 0 0 1 .515 2.09v11.157a4.653 4.653 0 0 1 -.3 1.634l.932.632a7 7 0 0 0 3.938 1.21h6.656a4.866 4.866 0 0 0 4.386-2.75l1.752-3.56a16.03 16.03 0 0 0 1.636-7.041v-.131a4.016 4.016 0 0 0 -3.987-4.036z"/></g></svg> 