<svg xmlns="http://www.w3.org/2000/svg" version="1.1" xmlns:xlink="http://www.w3.org/1999/xlink" width="512" height="512" x="0" y="0" viewBox="0 0 28 28" style="enable-background:new 0 0 512 512" xml:space="preserve" class=""><g><path d="M23.013 9.482H17.65l.75-1.909a6.028 6.028 0 0 0-.413-5.234A2.708 2.708 0 0 0 13.041 3a11.634 11.634 0 0 1-3.873 5.91L7.66 10.135a2.43 2.43 0 0 0-1.65-.653H3.444A2.448 2.448 0 0 0 1 11.927v11.52a2.448 2.448 0 0 0 2.444 2.445H6.01a2.433 2.433 0 0 0 1.722-.713l.9.611A7 7 0 0 0 12.57 27h6.656a4.866 4.866 0 0 0 4.386-2.75l1.752-3.56A16.03 16.03 0 0 0 27 13.649v-.131a4.016 4.016 0 0 0-3.987-4.036zM6.455 23.447a.446.446 0 0 1-.445.445H3.444A.445.445 0 0 1 3 23.447v-11.52a.445.445 0 0 1 .444-.445H6.01a.446.446 0 0 1 .445.445zM25 13.649a14.031 14.031 0 0 1-1.431 6.159l-1.752 3.559A2.877 2.877 0 0 1 19.226 25H12.57a5 5 0 0 1-2.815-.867l-1.3-.881V12.067l1.975-1.606a13.62 13.62 0 0 0 4.536-6.924.7.7 0 0 1 .6-.531.686.686 0 0 1 .7.35 4.014 4.014 0 0 1 .274 3.484l-1.29 3.276a1 1 0 0 0 .931 1.366h6.831A2.015 2.015 0 0 1 25 13.518z" data-name="Layer 2" fill="#ffffff" opacity="1" data-original="#000000"></path></g></svg>