<svg xmlns="http://www.w3.org/2000/svg" xmlns:xlink="http://www.w3.org/1999/xlink" width="682.665" height="682.665" viewBox="0 0 682.665 682.665"><defs><clipPath id="a"><path d="M0-682.665H682.665V0H0Z"/></clipPath></defs><g transform="translate(0 682.665)"><g clip-path="url(#a)"><g transform="translate(362.793 -416.887)"><path d="M0,0A144.464,144.464,0,0,1,30.631,23.464C86.884,79.717,88.424,169.382,17.653,240.153L-78.194,336c-70.772,70.771-160.437,69.23-216.69,12.976s-57.795-145.918,12.976-216.689l69.781-70.068" fill="rgba(0,0,0,0)" stroke="#fff" stroke-linecap="round" stroke-linejoin="round" stroke-miterlimit="10" stroke-width="53.333"/></g><g transform="translate(319.872 -265.778)"><path d="M0,0A144.42,144.42,0,0,1-30.631-23.464C-86.884-79.718-88.424-169.382-17.653-240.153L78.194-336c70.772-70.772,160.437-69.23,216.69-12.977s57.795,145.918-12.976,216.689L212.127-62.221" fill="rgba(0,0,0,0)" stroke="#fff" stroke-linecap="round" stroke-linejoin="round" stroke-miterlimit="10" stroke-width="53.333"/></g></g></g></svg>