<svg xmlns="http://www.w3.org/2000/svg" xmlns:xlink="http://www.w3.org/1999/xlink" width="20" height="20" viewBox="0 0 20 20"><defs><clipPath id="a"><path d="M0-682.665H20v20H0Z" transform="translate(0 682.665)"/></clipPath></defs><g transform="translate(0 682.665)"><g transform="translate(0 -682.665)"><g clip-path="url(#a)"><g transform="translate(1.73 0.782)"><path d="M-575.988-70.386l-5.524,14.363a1.558,1.558,0,0,1-.354.543,1.563,1.563,0,0,1-2.21,0,1.556,1.556,0,0,1-.4-.7l-1.4-5.231a1.555,1.555,0,0,0-.4-.7,1.555,1.555,0,0,0-.7-.4l-5.231-1.4a1.555,1.555,0,0,1-.7-.4,1.562,1.562,0,0,1,0-2.21,1.556,1.556,0,0,1,.543-.354l14.363-5.524a1.563,1.563,0,0,1,1.667.354A1.563,1.563,0,0,1-575.988-70.386Z" transform="translate(593.372 72.511)" fill="none" stroke="#fff" stroke-linecap="round" stroke-linejoin="round" stroke-miterlimit="10" stroke-width="2"/></g><g transform="translate(0.781 15.904)"><path d="M-109.822,0l-3.315,3.315" transform="translate(113.137)" fill="none" stroke="#fff" stroke-linecap="round" stroke-linejoin="round" stroke-miterlimit="10" stroke-width="2"/></g><g transform="translate(5.201 17.009)"><path d="M-73.214,0l-2.21,2.21" transform="translate(75.424)" fill="none" stroke="#fff" stroke-linecap="round" stroke-linejoin="round" stroke-miterlimit="10" stroke-width="2"/></g><g transform="translate(0.781 12.59)"><path d="M-73.214,0l-2.21,2.21" transform="translate(75.424)" fill="none" stroke="#fff" stroke-linecap="round" stroke-linejoin="round" stroke-miterlimit="10" stroke-width="2"/></g><g transform="translate(11.027 5.659)"><path d="M-109.822,0l-3.315,3.315" transform="translate(113.137)" fill="none" stroke="#fff" stroke-linecap="round" stroke-linejoin="round" stroke-miterlimit="10" stroke-width="2"/></g></g></g></g></svg>