<svg xmlns="http://www.w3.org/2000/svg" version="1.1" xmlns:xlink="http://www.w3.org/1999/xlink" width="512" height="512" x="0" y="0" viewBox="0 0 24 24" style="enable-background:new 0 0 512 512" xml:space="preserve" class=""><g><g data-name="Layer 2"><path d="M20.92 18.37a1.996 1.996 0 0 1-2 2.1 1.98 1.98 0 0 1-.76-.15l-2.95-1.21-5.3-2.19 1.15-1.57 5.05-6.91a.752.752 0 1 0-1.22-.88l-6.41 8.77-4.24-1.74a1.997 1.997 0 0 1-.43-3.45L16.9 1.33a1.995 1.995 0 0 1 3.2 1.49z" fill="#ffffff" opacity="1" data-original="#000000"></path><path d="m15.62 18.78-.41.33-4.59 3.67A.962.962 0 0 1 10 23a.907.907 0 0 1-.43-.1A1.004 1.004 0 0 1 9 22v-3.83l.91-1.25 1.15-1.57 4.31 1.72a.996.996 0 0 1 .25 1.71z" fill="#ffffff" opacity="1" data-original="#000000"></path></g></g></svg>