<svg xmlns="http://www.w3.org/2000/svg" width="18.693" height="18.692" viewBox="0 0 18.693 18.692"><g transform="translate(0 0)"><g transform="translate(9.31 10.661)"><path d="M263.735,294.463l-2.269-2.251a.73.73,0,1,0-1.028,1.037l2.091,2.074h-.891a6.807,6.807,0,0,1-5.338-2.5.73.73,0,1,0-1.136.917,8.26,8.26,0,0,0,6.474,3.046h.817l-2.017,2a.73.73,0,0,0,1.028,1.037l2.269-2.251a2.185,2.185,0,0,0,0-3.107Z" transform="translate(-255 -292)" fill="#656391"/></g><g transform="translate(0 0)"><path d="M18.044,2.463,15.775.212a.73.73,0,0,0-1.028,1.037l2.017,2h-.817a8.316,8.316,0,0,0-7.2,4.1l-.309.536-.5-.864a8.316,8.316,0,0,0-7.2-4.1.73.73,0,0,0,0,1.46A6.852,6.852,0,0,1,6.669,7.753l.92,1.593-.92,1.593A6.852,6.852,0,0,1,.73,14.311a.73.73,0,1,0,0,1.46,8.316,8.316,0,0,0,7.2-4.1L9.059,9.722,9.071,9.7l.936-1.62A6.852,6.852,0,0,1,15.946,4.71h.891L14.746,6.783A.73.73,0,1,0,15.775,7.82l2.269-2.251a2.185,2.185,0,0,0,0-3.107Z" transform="translate(0 0)" fill="#656391"/></g></g></svg>