<svg xmlns="http://www.w3.org/2000/svg" version="1.1" xmlns:xlink="http://www.w3.org/1999/xlink" width="512" height="512" x="0" y="0" viewBox="0 0 512 512" style="enable-background:new 0 0 512 512" xml:space="preserve" class=""><g><path d="M425.9 1H86.1C38.6 1 0 43.4 0 95.4v248.3c0 45.6 29.6 83.7 68.8 92.5l42.8 54.1c10 12.9 25.3 20.5 41.6 20.7h.2c16.2-.1 31.5-7.6 41.5-20.3L238 437h187.9c47.5 0 86.1-42.4 86.1-94.4V95.4c0-52-38.6-94.4-86.1-94.4zm-61.7 311.4H224.4c-18 .3-32.8-14-33.1-32s14-32.8 32-33.1h140.9c18 .3 32.3 15.2 32 33.1-.3 17.5-14.4 31.7-32 32zm0-123.7H147.8c-18-.3-32.3-15.2-32-33.1.3-17.5 14.5-31.7 32-32h216.4c18 .3 32.3 15.2 32 33.1a32.49 32.49 0 0 1-32 32z" fill="#9f9dc9" opacity="1" data-original="#000000" class=""></path></g></svg>